<svg id="Слой_1" data-name="Слой 1" xmlns="http://www.w3.org/2000/svg" preserveAspectRatio="none" viewBox="0 0 1105.95 270"><defs><style>.cls-1{fill:#fff;}.cls-2,.cls-3{fill:#53c1de;}.cls-3{font-size:150px;font-family:LucidaBright, Lucida Bright;}</style></defs><path class="cls-1" d="M0,139c0,23.43,20.94,45.31,54,57.64-6.59,36.27-1.18,65.51,16.9,76.9,18.58,11.7,46.26,3.6,72.53-21.49,25.61,24.08,51.49,33.55,69.55,22.13,18.56-11.74,24.21-43,17.43-80.36C264.76,181.4,284,162.74,284,139c0-22.89-21-42.7-53.56-54.95,7.3-38.95,1.12-67.47-17.71-79.33C194.59-6.72,168.4,3.25,142.42,28c-27-26.23-53-34.24-71.77-22.34C52.52,17.09,47.35,46.85,54,83.79,22.06,96,0,116.2,0,139Z"/><path class="cls-2" d="M223.55,96.22q-3.93-1.48-8.12-2.8.69-3.06,1.25-6c6.15-32.6,2.13-58.86-11.59-67.5-13.16-8.29-34.68.35-56.41,21-2.09,2-4.19,4.09-6.28,6.29Q140.3,45,138.22,43C115.44,20.87,92.61,11.55,78.9,20.23c-13.14,8.31-17,33-11.5,63.89.53,3,1.16,6,1.86,9.13-3.23,1-6.35,2.07-9.33,3.21-26.7,10.17-43.76,26.11-43.76,42.65,0,17.08,18.31,34.21,46.12,44.6,2.2.82,4.48,1.59,6.82,2.33q-1.14,5-2,9.84c-5.27,30.35-1.15,54.46,12,62.72,13.54,8.53,36.26-.24,58.39-21.37,1.75-1.67,3.51-3.45,5.27-5.3q3.42,3.58,6.82,6.79c21.43,20.16,42.6,28.3,55.7,20,13.53-8.56,17.92-34.45,12.22-66q-.66-3.61-1.52-7.37c1.6-.52,3.17-1,4.69-1.6,28.92-10.47,47.73-27.39,47.73-44.7,0-16.6-17.6-32.65-44.84-42.89Z"/><path class="cls-1" d="M217.27,172.63c-1.37.5-2.79,1-4.23,1.45a291.65,291.65,0,0,0-12.77-34.91,291.48,291.48,0,0,0,12.27-34.4c2.58.81,5.09,1.67,7.5,2.58,23.34,8.78,37.58,21.76,37.58,31.76,0,10.65-15.38,24.48-40.35,33.52Zm-10.35,22.43c2.52,13.93,2.88,26.53,1.21,36.37-1.5,8.85-4.52,14.75-8.26,17.11-8,5-25-1.5-43.28-18.74q-3.15-3-6.34-6.32a273.86,273.86,0,0,0,21.14-29.33,232.81,232.81,0,0,0,34.16-5.75c.52,2.26,1,4.49,1.37,6.66ZM102.16,247.67c-7.77,3-14,3.09-17.69.73-8-5-11.26-24.37-6.75-50.33.51-3,1.13-6,1.84-9.15a232.5,232.5,0,0,0,34,5.38,283.24,283.24,0,0,0,21.65,29.23c-1.61,1.69-3.21,3.31-4.81,4.83-9.78,9.35-19.59,16-28.23,19.31Zm-36.38-75.1C53.48,168,43.32,162,36.36,155.49,30.11,149.64,27,143.83,27,139.11c0-10,13.69-22.83,36.53-31.53,2.77-1.06,5.67-2,8.68-3A296.74,296.74,0,0,0,84.45,139.4,303.88,303.88,0,0,0,72,174.7c-2.14-.68-4.22-1.39-6.22-2.13ZM78,81.86c-4.74-26.47-1.59-46.43,6.33-51.44,8.44-5.34,27.1,2.27,46.76,21.35q1.89,1.83,3.79,3.81a279.1,279.1,0,0,0-21.49,29.06,243.12,243.12,0,0,0-33.65,5.71c-.66-2.88-1.24-5.72-1.74-8.49Zm108.8,29.36q-3.75-7.06-7.67-13.79a217.73,217.73,0,0,1,23,4.4c-2.18,7.61-4.89,15.57-8.08,23.73q-3.42-7.12-7.25-14.34ZM142.4,64a245.68,245.68,0,0,1,14.84,19.58q-7.4-.39-15-.39t-14.85.38c4.9-7.06,9.92-13.62,15-19.57ZM97.75,111.3q-3.73,7.08-7.12,14.25c-3.14-8.13-5.82-16.13-8-23.85a223.76,223.76,0,0,1,22.86-4.29q-4,6.78-7.73,13.89Zm8,70.35a212.2,212.2,0,0,1-23.24-4.08c2.23-7.86,5-16,8.17-24.33q3.39,7.14,7.15,14.26h0q3.84,7.23,7.92,14.15Zm37,33.4c-5.11-6-10.2-12.68-15.18-19.84,4.83.21,9.76.31,14.76.31s10.22-.12,15.23-.37a243.5,243.5,0,0,1-14.81,19.9Zm51.43-62.24c3.37,8.4,6.21,16.52,8.47,24.25a212,212,0,0,1-23.53,4.38q3.93-6.8,7.74-14t7.32-14.61Zm-16.65,8.72c-3.94,7.47-8,14.6-12.1,21.33-7.49.59-15.22.89-23.1.89s-15.48-.27-22.83-.79c-4.28-6.82-8.41-14-12.33-21.36h0c-3.91-7.38-7.5-14.81-10.76-22.21,3.25-7.41,6.84-14.85,10.73-22.21h0c3.89-7.38,8-14.5,12.22-21.27,7.51-.62,15.2-1,23-1h0c7.81,0,15.51.33,23,1,4.17,6.73,8.24,13.82,12.15,21.2S185,132,188.32,139.23c-3.28,7.37-6.9,14.84-10.84,22.3ZM199.7,30.07c8.45,5.32,11.74,26.78,6.43,54.93-.34,1.79-.72,3.62-1.13,5.47a239.35,239.35,0,0,0-33.73-5.82A274.12,274.12,0,0,0,150,55.58q2.91-3.06,5.8-5.81c18.62-17.71,36-24.7,43.95-19.7Z"/><path class="cls-2" d="M142.28,114.5c12.44,0,22.52,11,22.52,24.61s-10.08,24.61-22.52,24.61-22.52-11-22.52-24.61,10.08-24.61,22.52-24.61"/><text class="cls-3" transform="translate(285 197.65)">ChatReact</text></svg>